<?xml version="1.0" encoding="UTF-8" standalone="no"?>
<!-- Created with Inkscape (http://www.inkscape.org/) -->

<svg
   version="1.1"
   id="svg348"
   width="800"
   height="799.97333"
   viewBox="0 0 800 799.97333"
   sodipodi:docname="rr-logo-white-left.svg"
   inkscape:version="1.2.2 (b0a8486541, 2022-12-01)"
   xmlns:inkscape="http://www.inkscape.org/namespaces/inkscape"
   xmlns:sodipodi="http://sodipodi.sourceforge.net/DTD/sodipodi-0.dtd"
   xmlns="http://www.w3.org/2000/svg"
   xmlns:svg="http://www.w3.org/2000/svg">
  <defs
     id="defs352" />
  <sodipodi:namedview
     id="namedview350"
     pagecolor="#ffffff"
     bordercolor="#000000"
     borderopacity="0.25"
     inkscape:showpageshadow="2"
     inkscape:pageopacity="0.0"
     inkscape:pagecheckerboard="true"
     inkscape:deskcolor="#d1d1d1"
     showgrid="false"
     inkscape:zoom="0.73022016"
     inkscape:cx="404.67248"
     inkscape:cy="556.68143"
     inkscape:window-width="1920"
     inkscape:window-height="1043"
     inkscape:window-x="0"
     inkscape:window-y="0"
     inkscape:window-maximized="1"
     inkscape:current-layer="g356">
    <inkscape:page
       x="0"
       y="0"
       id="page354"
       width="800"
       height="799.97333" />
  </sodipodi:namedview>
  <g
     id="g356"
     inkscape:groupmode="layer"
     inkscape:label="Page 1"
     transform="matrix(1.3333333,0,0,-1.3333333,0,799.97333)">
    <g
       id="g358"
       transform="matrix(0,0.1,-0.1,0,599.93789,-0.01089363)">
      <path
         d="m 3046.07,5999.77 c 1.92,-4.04 3.57,-8.27 4.62,-12.78 l 87.3,-372.23 c 14.75,-2.2 29.49,-4.46 44.15,-6.92 325.28,-54.32 629.73,-170.05 901.16,-334.76 l 407.65,331.2 c -426.74,244.88 -919.44,387.6 -1444.88,395.49"
         style="fill:#ffffff;fill-opacity:1;fill-rule:nonzero;stroke:none"
         id="path360" />
      <path
         d="m 5475.73,4695.54 c -94.89,138.31 -201.31,268.05 -317.46,388.34 -1.53,-7.38 -4.38,-14.59 -8.63,-21.27 l -311.01,-489.1 c 157.43,-219.54 280.85,-465.06 362.88,-728.82 l 690.6,-42.93 c -89.41,323.08 -231.46,624.28 -416.38,893.78"
         style="fill:#ffffff;fill-opacity:1;fill-rule:nonzero;stroke:none"
         id="path362" />
      <path
         d="m 5998.98,2957.75 -701.44,-186.63 c -30.06,-246.33 -95.12,-481.81 -190.07,-701.37 l 508.79,-539.02 c 238.11,422.86 376.6,909.21 383.74,1427.39 -0.36,-0.09 -0.67,-0.28 -1.02,-0.37"
         style="fill:#ffffff;fill-opacity:1;fill-rule:nonzero;stroke:none"
         id="path364" />
      <path
         d="M 2202.78,5893.23 C 1622.01,5733.46 1111.77,5403.46 728.996,4960.29 1187.07,5327.16 1698.81,5541.22 2173.7,5577.21 l 29.08,316.02"
         style="fill:#ffffff;fill-opacity:1;fill-rule:nonzero;stroke:none"
         id="path366" />
      <path
         d="m 716.23,2901.71 c 0,6.47 0.208,12.91 0.25,19.37 H 0 C 1.03516,2877.89 2.13672,2834.75 5.59766,2792.44 36.3984,2340.03 167.609,1915.25 376.844,1539.94 c 5.644,-10.11 11.179,-20.28 16.941,-30.31 2.164,-3.79 4.43,-7.5 6.613,-11.27 C 919.879,602.531 1888.95,0 2998.78,0 c 543.08,0 1052.31,144.52 1491.81,396.84 -324.77,-137.149 -681.78,-213 -1056.48,-213 -1501.04,0 -2717.88,1216.82 -2717.88,2717.87"
         style="fill:#ffffff;fill-opacity:1;fill-rule:nonzero;stroke:#ffffff"
         id="path368" />
      <path
         d="m 4082.7,2767.33 c 125.62,160.7 188.54,340.34 188.54,539 0,352.72 -156.16,572.58 -468.35,763.29 -277.87,167.2 -534.45,202.58 -981.6,202.58 H 277.734 C 184.059,4071.61 111.91,3858.98 64.2305,3637.22 H 2904.63 c 373.1,0 559.63,-155.83 559.63,-375.35 0,-112.34 -62.13,-216.73 -186.53,-274.22 -97.96,-44.43 -222.24,-66.61 -373.1,-66.61 H 1888.37 L 4147.35,1028.67 h 1113.29 c 4.59,5.27 9.19,10.53 13.75,15.82 L 3613.24,2448.81 c 222.24,86.27 343.74,157.85 469.46,318.52"
         style="fill:#ffffff;fill-opacity:1;fill-rule:nonzero;stroke:#ffffff"
         id="path370" />
    </g>
  </g>
</svg>
